<svg width="1000" height="200" viewBox="0 0 1000 200" fill="none" xmlns="http://www.w3.org/2000/svg">
<path d="M843.3 112.4C843.3 155 808.7 189.4 766.3 189.4C723.7 189.4 689.3 155 689.3 112.4C689.3 70 723.7 35.4 766.3 35.4C808.7 35.4 843.3 70 843.3 112.4ZM839.2 112.4C839.2 72.2 806.6 39.1 766.4 39.1C726.2 39.1 693.6 72.2 693.6 112.4C693.6 152.6 726.2 185.7 766.4 185.7C806.5 185.8 839.2 152.6 839.2 112.4Z" stroke="#0674B7" stroke-width="7" stroke-miterlimit="10"/>
<path d="M168.4 110.9C168.4 153.5 133.8 187.9 91.4 187.9C48.8 187.9 14.4 153.5 14.4 110.9C14.4 68.5 48.8 33.9 91.4 33.9C133.8 34 168.4 68.5 168.4 110.9ZM164.2 110.9C164.2 70.7 131.6 37.6 91.4 37.6C51.2 37.6 18.6 70.7 18.6 110.9C18.6 151.1 51.2 184.2 91.4 184.2C131.6 184.3 164.2 151.1 164.2 110.9Z" stroke="#FF0000" stroke-width="7" stroke-miterlimit="10"/>
<path d="M237.8 129C262.2 129 281.9 110 281.9 84.4C281.9 58.6 262.2 39.6 237.8 39.6H196.4V186H192.5V35.9H236.6C263.6 35.9 286.3 58 286 84.9C285.7 111.2 264.4 132.6 237.8 132.6L281.9 186H276.3L230 129.2C229.9 129.1 230 128.9 230.1 128.9H237.8V129V129Z" stroke="#FF0000" stroke-width="7" stroke-miterlimit="10"/>
<path d="M455.2 110.9C455.2 153.5 420.6 187.9 378.2 187.9C335.6 187.9 301.2 153.6 301.2 110.9C301.2 68.5 335.5 33.9 378.2 33.9C420.6 33.9 455.2 68.5 455.2 110.9Z" stroke="#FF0000" stroke-width="7" stroke-miterlimit="10"/>
<path d="M451 110.9C451 70.7 418.4 37.6 378.2 37.6C338 37.6 305.3 70.7 305.3 110.9C305.3 151.1 337.9 184.2 378.2 184.2C418.4 184.3 451 151.2 451 110.9Z" stroke="#FF0000" stroke-width="7" stroke-miterlimit="10"/>
<path d="M506.8 186V40.5H455.7V36.9H561.9V40.5H510.7V186H506.8Z" stroke="#0674B7" stroke-width="7" stroke-miterlimit="10"/>
<path d="M626 129C650.4 129 670.1 110 670.1 84.4C670.1 58.6 650.4 39.6 626 39.6H584.6V186H580.7V35.9H624.8C651.8 35.9 674.5 58 674.2 84.9C673.9 111.2 652.6 132.6 626 132.6L670.1 186H664.5L619 130.3C618.6 129.8 618.9 129 619.6 129H626Z" stroke="#0674B7" stroke-width="7" stroke-miterlimit="10"/>
<path d="M976 35.9V186H972.8H970.7L871.4 41.5C871.4 41.4 871.3 41.5 871.3 41.5V186H869H867.4V35.9H870H872.8L972 181.1C972 181.2 972.2 181.1 972.2 181V35.9H974.1H976Z" stroke="#0674B7" stroke-width="7" stroke-miterlimit="10"/>
<path d="M723.3 113.1C723.3 89.74 742.24 70.8 765.6 70.8C788.96 70.8 807.9 89.74 807.9 113.1C807.9 136.46 788.96 155.4 765.6 155.4C742.24 155.4 723.3 136.46 723.3 113.1Z" stroke="#0674B7" stroke-width="30" stroke-miterlimit="10"/>
<path d="M755.4 113.1C755.39 107.47 759.95 102.89 765.58 102.88C771.21 102.87 775.79 107.43 775.8 113.06C775.8 113.07 775.8 113.09 775.8 113.1C775.81 118.73 771.25 123.31 765.62 123.32C759.99 123.33 755.41 118.77 755.4 113.14C755.4 113.13 755.4 113.11 755.4 113.1Z" stroke="#FF0000" stroke-width="20" stroke-miterlimit="10"/>
<path d="M824.4 79.2C824.39 74.95 827.83 71.49 832.08 71.48C836.33 71.47 839.79 74.91 839.8 79.16C839.8 79.17 839.8 79.18 839.8 79.19C839.81 83.44 836.37 86.9 832.12 86.91C827.87 86.92 824.41 83.48 824.4 79.23C824.4 79.22 824.4 79.21 824.4 79.2Z" stroke="#0674B7" stroke-width="10" stroke-miterlimit="10"/>
</svg>
